<?xml version="1.0" standalone="no"?>
<!DOCTYPE svg PUBLIC "-//W3C//DTD SVG 20010904//EN"
 "http://www.w3.org/TR/2001/REC-SVG-20010904/DTD/svg10.dtd">
<svg version="1.0" xmlns="http://www.w3.org/2000/svg"
 width="700.000000pt" height="700.000000pt" viewBox="0 0 700.000000 700.000000"
 preserveAspectRatio="xMidYMid meet">
<metadata>
Created by potrace 1.11, written by Peter Selinger 2001-2013
</metadata>
<g transform="translate(0.000000,700.000000) scale(0.100000,-0.100000)"
fill="#000000" stroke="none">
<path d="M1585 6818 c2 -18 7 -58 10 -89 3 -31 7 -65 9 -75 2 -11 7 -50 11
-89 3 -38 8 -83 10 -100 2 -16 6 -50 9 -75 18 -154 27 -230 32 -270 3 -25 7
-58 9 -75 6 -64 17 -171 21 -188 2 -10 6 -46 9 -80 3 -34 8 -80 11 -102 3 -22
7 -51 9 -65 2 -14 6 -54 10 -90 3 -36 8 -76 10 -90 2 -14 7 -53 11 -87 3 -35
8 -75 9 -90 2 -16 7 -55 10 -88 4 -33 8 -71 10 -85 2 -14 7 -52 10 -85 3 -33
8 -71 10 -85 2 -14 7 -50 10 -80 3 -30 7 -68 9 -85 3 -16 7 -61 11 -100 4 -38
9 -78 11 -88 2 -10 6 -48 9 -85 3 -37 8 -74 10 -82 2 -8 7 -42 10 -75 3 -33 7
-76 10 -95 2 -19 6 -57 10 -85 3 -27 8 -72 11 -100 3 -27 7 -61 9 -75 1 -14 6
-50 9 -80 4 -30 9 -77 12 -105 15 -132 25 -218 29 -245 2 -14 6 -50 10 -80 3
-30 8 -77 11 -104 6 -43 4 -48 -10 -43 -10 4 -126 38 -259 77 -240 69 -347
103 -482 155 -38 14 -81 30 -95 34 -40 13 -432 164 -600 231 -85 34 -176 70
-201 80 l-46 19 -50 -62 c-27 -34 -66 -84 -86 -111 l-37 -48 57 -27 c121 -58
378 -164 568 -236 119 -45 559 -190 666 -220 55 -15 56 -16 54 -53 -8 -230 87
-480 250 -653 161 -172 412 -314 670 -380 120 -30 333 -33 445 -5 85 21 199
71 265 115 25 17 45 28 45 25 0 -3 -16 -56 -35 -117 -57 -180 -85 -321 -92
-453 l-6 -122 -54 -6 c-173 -20 -387 -140 -640 -358 -207 -178 -326 -250 -488
-295 -47 -13 -235 -11 -282 3 -91 27 -197 89 -295 173 -51 44 -153 119 -156
116 -9 -9 175 -352 230 -430 79 -111 237 -273 346 -353 151 -112 337 -192 527
-226 103 -19 339 -14 454 8 129 26 259 73 340 123 128 79 250 214 326 360 15
29 29 53 31 53 2 0 23 -8 46 -17 66 -27 218 -24 282 5 27 12 50 21 52 20 1 -2
17 -30 35 -63 97 -179 229 -314 384 -392 121 -61 322 -104 510 -108 184 -4
351 25 482 86 24 10 46 19 49 19 15 0 174 97 239 146 77 57 168 144 236 224
24 29 49 58 55 64 37 39 124 187 193 325 44 88 78 161 75 161 -2 0 -46 -33
-97 -73 -217 -172 -288 -212 -412 -232 -200 -33 -446 65 -670 267 -77 69 -212
175 -287 226 -64 44 -224 126 -273 140 -81 24 -121 32 -152 32 -20 0 -33 5
-33 13 -7 166 -9 189 -40 327 -21 93 -86 314 -101 342 -13 24 -4 22 34 -6 54
-40 168 -92 257 -116 111 -31 346 -34 445 -6 6 1 26 6 45 10 51 12 246 90 312
125 236 126 396 284 493 486 62 130 93 272 89 417 l-1 56 61 17 c157 44 613
200 731 250 17 7 89 36 160 65 72 30 159 67 195 83 36 16 82 37 103 47 l38 17
-53 70 c-29 38 -69 88 -88 111 -34 41 -36 41 -65 27 -16 -7 -124 -50 -240 -95
-115 -45 -248 -97 -295 -115 -131 -51 -332 -127 -360 -135 -14 -5 -70 -25
-125 -44 -55 -20 -217 -71 -360 -113 -143 -41 -266 -78 -273 -81 -14 -5 -14 5
3 138 3 19 7 58 10 85 3 28 7 68 10 90 3 22 7 58 10 80 17 149 25 216 30 260
3 28 7 66 9 85 3 19 7 60 11 90 3 30 8 71 10 90 3 19 7 58 10 85 3 28 8 66 10
85 3 19 7 58 10 85 3 28 7 66 10 85 2 19 7 60 10 90 7 64 11 96 24 205 6 44
13 109 16 145 4 36 8 76 10 90 2 14 6 50 10 80 9 77 14 124 20 168 2 20 7 62
10 92 3 30 8 73 11 95 9 74 13 110 19 165 3 30 8 73 11 95 8 67 13 108 19 160
3 28 7 68 10 90 2 22 7 60 10 85 9 86 16 145 20 180 3 19 7 58 10 85 3 28 10
84 15 125 12 98 18 152 25 225 3 33 8 72 11 88 l6 27 -1921 0 -1921 0 5 -32z"/>
</g>
</svg>
