<?xml version="1.0" encoding="utf-8"?>
<!-- Generator: Adobe Illustrator 15.1.0, SVG Export Plug-In  -->
<!DOCTYPE svg PUBLIC "-//W3C//DTD SVG 1.1//EN" "http://www.w3.org/Graphics/SVG/1.1/DTD/svg11.dtd" [
	<!ENTITY ns_flows "http://ns.adobe.com/Flows/1.0/">
]>
<svg version="1.1"
	 xmlns="http://www.w3.org/2000/svg" xmlns:xlink="http://www.w3.org/1999/xlink" xmlns:a="http://ns.adobe.com/AdobeSVGViewerExtensions/3.0/"
	 x="0px" y="0px" width="337px" height="359px" viewBox="58.307 90.766 337 359" enable-background="new 58.307 90.766 337 359"
	 xml:space="preserve">
<defs>
</defs>
<rect x="32.484" y="53.734" display="none" fill="#DDDDDD" width="372.315" height="409.789"/>
<g>
	<defs>
		<path id="SVGID_1_" d="M282.005,64.396h-89.754l44.877,89.788L282.005,64.396z M231.755,159.26l-48.014-64.594l11.303,99.547
			L231.755,159.26z M241.209,156.907l-97.023,196.814l153.276-121.285L241.209,156.907z M203.085,204.409L27.304,119.014
			L164.44,290.288L203.085,204.409z M181.747,179.73l-13.799-99.429l-74,50.804L181.747,179.73z M308.31,225.837l29.922-43.535
			l-51.685-85.255L308.31,225.837z M299.249,90.699l44.877,89.787l44.877-89.787H299.249z M290.752,350.584l7.123-27.311
			l-27.31-7.104L290.752,350.584z M155.056,364.258l48.07,64.741l-11.314-99.774L155.056,364.258z M103.947,236.155l11.302,99.546
			l36.711-34.953L103.947,236.155z M14.153,272.594l87.799,48.625L88.153,221.79L14.153,272.594z M208.036,446.023l33.992-33.182
			l-33.689-33.818L208.036,446.023z M77.593,205.122l-19.817-20.143l-0.178,39.907L77.593,205.122z M301.055,228.558L278.386,96.139
			l-29.923,56.232L301.055,228.558z M224.888,316.535l104.277-46.256l-28.11-29.93L224.888,316.535z M36.755,140.574L0,175.607
			l48.07,64.741L36.755,140.574z M110.635,86.163L58.95,0.907l21.762,128.791L110.635,86.163z M50.79,0L20.866,56.233l52.592,76.186
			L50.79,0z M44.024,336.007l33.978-19.955l-26.963-7.042L44.024,336.007z"/>
	</defs>
	<clipPath id="SVGID_2_">
		<use xlink:href="#SVGID_1_"  overflow="visible"/>
	</clipPath>
	<rect x="57.598" y="88.548" clip-path="url(#SVGID_2_)" fill="#FFFFFF" width="350.755" height="382.672"/>
</g>
<rect id="_x3C_スライス_x3E__12_" x="58.598" y="91.454" fill="none" width="336.828" height="358.333"/>
</svg>
