<?xml version="1.0" encoding="utf-8"?>
<!-- Generator: Adobe Illustrator 15.1.0, SVG Export Plug-In  -->
<!DOCTYPE svg PUBLIC "-//W3C//DTD SVG 1.1//EN" "http://www.w3.org/Graphics/SVG/1.1/DTD/svg11.dtd" [
	<!ENTITY ns_flows "http://ns.adobe.com/Flows/1.0/">
]>
<svg version="1.1"
	 xmlns="http://www.w3.org/2000/svg" xmlns:xlink="http://www.w3.org/1999/xlink" xmlns:a="http://ns.adobe.com/AdobeSVGViewerExtensions/3.0/"
	 x="0px" y="0px" width="341px" height="377px" viewBox="10.152 9.453 341 377" enable-background="new 10.152 9.453 341 377"
	 xml:space="preserve">
<defs>
</defs>
<rect display="none" fill="#DDDDDD" width="372.315" height="409.789"/>
<g>
	<defs>
		<path id="SVGID_1_" d="M387.426,196.789l-21.557-87.127l-76.375,65.128L387.426,196.789z M260.749,225.257l99.341-12.937
			l-74.23-31.096L260.749,225.257z M199.048,135.016l-80.912,177.918l167.736-141.451L199.048,135.016z M174.842,278.037
			l199.188,91.988L248.92,219.898L174.842,278.037z M377.827,224.2L278,234.686l68.286,73.551L377.827,224.2z M237.918,83.398
			l-35.07,39.503l130.239-9.806L237.918,83.398z M314.64,12.113l-76.375,65.128l97.933,21.999L314.64,12.113z M110.776,156.431
			l-24.798,13.474l38.253,11.33L110.776,156.431z M30.911,273.797l74.387,31.115l25.177-44.093L30.911,273.797z M167.687,292.664
			l-25.11,44.032l99.341-12.937L167.687,292.664z M159.828,346.125l68.286,73.551l31.541-84.035L159.828,346.125z M37.25,232.153
			L13.206,273.12l64.962-16.384L37.25,232.153z M263.989,366.045l38.692-9.756l-24.312-14.4L263.989,366.045z M335.927,120.8
			l-133.978,9.797l86.582,32.755L335.927,120.8z M154.702,113.33l-19.854,112.334l55.656-92.236L154.702,113.33z M325.655,410.121
			l25.178-44.092l-99.564,12.978L325.655,410.121z M385.902,281.244l-35.07,39.502l130.239-9.806L385.902,281.244z M349.933,328.441
			l86.582,32.756l47.396-42.553L349.933,328.441z M159.387,405.909l24.521-13.292l-13.312-24.483L159.387,405.909z"/>
	</defs>
	<clipPath id="SVGID_2_">
		<use xlink:href="#SVGID_1_"  overflow="visible"/>
	</clipPath>
	<rect x="1.108" y="4.118" clip-path="url(#SVGID_2_)" fill="#FFFFFF" width="350.755" height="382.672"/>
</g>
<rect id="_x3C_スライス_x3E__12_" x="10.27" y="10.225" fill="none" width="340.593" height="375.565"/>
</svg>
