<?xml version="1.0" encoding="utf-8"?>
<!-- Generator: Adobe Illustrator 15.1.0, SVG Export Plug-In  -->
<!DOCTYPE svg PUBLIC "-//W3C//DTD SVG 1.1//EN" "http://www.w3.org/Graphics/SVG/1.1/DTD/svg11.dtd" [
	<!ENTITY ns_flows "http://ns.adobe.com/Flows/1.0/">
]>
<svg version="1.1"
	 xmlns="http://www.w3.org/2000/svg" xmlns:xlink="http://www.w3.org/1999/xlink" xmlns:a="http://ns.adobe.com/AdobeSVGViewerExtensions/3.0/"
	 x="0px" y="0px" width="107px" height="107px" viewBox="-0.549 -0.725 107 107" enable-background="new -0.549 -0.725 107 107"
	 xml:space="preserve">
<defs>
</defs>
<circle cx="52.853" cy="52.852" r="52.853"/>
<g>
	<g>
		<path fill="#FFFFFF" d="M79.406,41.859c-0.13-2.837-0.581-4.775-1.24-6.471c-0.681-1.754-1.593-3.24-3.075-4.722
			c-1.481-1.482-2.969-2.394-4.722-3.075c-1.695-0.659-3.634-1.109-6.471-1.24c-2.844-0.129-3.751-0.16-10.992-0.16
			s-8.148,0.031-10.992,0.16c-2.838,0.131-4.776,0.581-6.472,1.24c-1.753,0.682-3.24,1.593-4.723,3.075
			c-1.481,1.481-2.394,2.968-3.075,4.722c-0.659,1.695-1.109,3.634-1.239,6.471c-0.13,2.845-0.161,3.752-0.161,10.992
			c0,7.242,0.03,8.149,0.161,10.994c0.129,2.836,0.58,4.773,1.239,6.471c0.681,1.754,1.593,3.239,3.075,4.722
			c1.482,1.482,2.97,2.394,4.723,3.075c1.696,0.659,3.634,1.109,6.472,1.239c2.843,0.13,3.751,0.161,10.992,0.161
			s8.148-0.031,10.992-0.161c2.837-0.13,4.776-0.58,6.471-1.239c1.753-0.682,3.241-1.593,4.722-3.075
			c1.482-1.482,2.394-2.968,3.075-4.722c0.659-1.697,1.11-3.635,1.24-6.471c0.129-2.845,0.16-3.752,0.16-10.994
			C79.566,45.611,79.536,44.704,79.406,41.859z M74.64,63.642c-0.12,2.604-0.554,4.018-0.92,4.958
			c-0.484,1.247-1.062,2.136-1.997,3.07c-0.934,0.934-1.824,1.513-3.07,1.997c-0.941,0.365-2.355,0.802-4.958,0.92
			c-2.815,0.128-3.66,0.155-10.79,0.155s-7.975-0.027-10.79-0.155c-2.603-0.118-4.017-0.555-4.958-0.92
			c-1.247-0.484-2.136-1.063-3.071-1.997c-0.934-0.935-1.513-1.823-1.997-3.07c-0.366-0.94-0.801-2.354-0.92-4.958
			c-0.128-2.816-0.155-3.66-0.155-10.79c0-7.128,0.026-7.974,0.155-10.789c0.12-2.603,0.554-4.017,0.92-4.957
			c0.484-1.247,1.063-2.138,1.997-3.07c0.935-0.935,1.824-1.514,3.071-1.998c0.94-0.365,2.355-0.801,4.958-0.92
			c2.816-0.127,3.66-0.155,10.79-0.155c7.129,0,7.974,0.028,10.79,0.155c2.603,0.119,4.017,0.555,4.958,0.92
			c1.246,0.484,2.136,1.063,3.07,1.998c0.935,0.933,1.513,1.823,1.997,3.07c0.367,0.94,0.801,2.354,0.92,4.957
			c0.128,2.815,0.155,3.661,0.155,10.789C74.795,59.981,74.769,60.825,74.64,63.642z M52.906,39.172
			c-7.557,0-13.682,6.124-13.682,13.68c0,7.558,6.125,13.682,13.682,13.682c7.556,0,13.682-6.124,13.682-13.682
			C66.587,45.296,60.462,39.172,52.906,39.172z M52.906,61.763c-4.922,0-8.911-3.989-8.911-8.911c0-4.921,3.989-8.909,8.911-8.909
			c4.921,0,8.912,3.988,8.912,8.909C61.817,57.773,57.827,61.763,52.906,61.763z M67.113,35.451c-1.763,0-3.193,1.431-3.193,3.193
			s1.43,3.193,3.193,3.193s3.192-1.431,3.192-3.193S68.876,35.451,67.113,35.451z"/>
	</g>
</g>
<rect id="_x3C_スライス_x3E__12_" y="0.204" fill="none" width="105.705" height="105.297"/>
</svg>
