<?xml version="1.0" encoding="utf-8"?>
<!-- Generator: Adobe Illustrator 15.1.0, SVG Export Plug-In  -->
<!DOCTYPE svg PUBLIC "-//W3C//DTD SVG 1.1//EN" "http://www.w3.org/Graphics/SVG/1.1/DTD/svg11.dtd" [
	<!ENTITY ns_flows "http://ns.adobe.com/Flows/1.0/">
]>
<svg version="1.1"
	 xmlns="http://www.w3.org/2000/svg" xmlns:xlink="http://www.w3.org/1999/xlink" xmlns:a="http://ns.adobe.com/AdobeSVGViewerExtensions/3.0/"
	 x="0px" y="0px" width="106px" height="107px" viewBox="-0.226 -0.725 106 107" enable-background="new -0.226 -0.725 106 107"
	 xml:space="preserve">
<defs>
</defs>
<circle cx="52.853" cy="52.852" r="52.853"/>
<path fill="#FFFFFF" d="M43.183,80.73c23.436,0,36.251-19.416,36.251-36.251c0-0.552-0.011-1.102-0.037-1.647
	c2.487-1.799,4.65-4.043,6.356-6.598c-2.283,1.015-4.74,1.698-7.317,2.007c2.63-1.578,4.65-4.073,5.603-7.049
	c-2.462,1.459-5.188,2.521-8.09,3.093c-2.325-2.477-5.637-4.025-9.301-4.025c-7.037,0-12.743,5.706-12.743,12.74
	c0,1,0.111,1.972,0.331,2.905c-10.589-0.532-19.979-5.604-26.263-13.312c-1.095,1.882-1.725,4.069-1.725,6.403
	c0,4.421,2.249,8.322,5.669,10.605c-2.09-0.064-4.053-0.639-5.77-1.594c-0.003,0.053-0.003,0.106-0.003,0.162
	c0,6.172,4.393,11.323,10.222,12.491c-1.07,0.291-2.196,0.448-3.359,0.448c-0.821,0-1.619-0.082-2.395-0.229
	c1.622,5.062,6.326,8.745,11.902,8.85c-4.361,3.417-9.855,5.453-15.824,5.453c-1.028,0-2.042-0.059-3.04-0.176
	C29.291,78.621,35.985,80.73,43.183,80.73"/>
<rect id="_x3C_スライス_x3E__12_" fill="none" width="105.705" height="106.056"/>
</svg>
