<?xml version="1.0" encoding="utf-8"?>
<!-- Generator: Adobe Illustrator 15.1.0, SVG Export Plug-In  -->
<!DOCTYPE svg PUBLIC "-//W3C//DTD SVG 1.1//EN" "http://www.w3.org/Graphics/SVG/1.1/DTD/svg11.dtd" [
	<!ENTITY ns_flows "http://ns.adobe.com/Flows/1.0/">
]>
<svg version="1.1"
	 xmlns="http://www.w3.org/2000/svg" xmlns:xlink="http://www.w3.org/1999/xlink" xmlns:a="http://ns.adobe.com/AdobeSVGViewerExtensions/3.0/"
	 x="0px" y="0px" width="275px" height="36px" viewBox="-0.871 -0.693 275 36" enable-background="new -0.871 -0.693 275 36"
	 xml:space="preserve">
<defs>
</defs>
<path d="M0.072,29.811h1.656c2.051,0,2.483-1.295,2.483-2.627V8.502c0-2.088-1.151-2.628-2.483-2.628H0.072V4.686h11.807v1.188
	h-1.62c-2.052,0-2.52,1.26-2.52,2.628v18.682c0,2.088,1.151,2.627,2.52,2.627h1.62v1.152H0.072V29.811z"/>
<path d="M21.6,4.686l14.902,20.051V8.502c0-1.512-1.08-2.628-2.447-2.628H32.83V4.686h8.459v1.188h-1.152
	c-1.367,0-2.483,1.008-2.483,2.628v22.461h-1.151L20.447,8.861v18.322c0,1.367,0.9,2.627,2.484,2.627h1.151v1.152h-8.458v-1.152
	h1.151c1.403,0,2.483-1.043,2.483-2.627V8.502c0-0.721-0.504-2.628-2.592-2.628h-1.043V4.686H21.6z"/>
<path d="M56.23,30.963H44.712v-1.152h1.548c2.016,0,2.483-1.799,2.483-3.131V8.682c0-1.8-0.936-2.808-2.735-2.808h-1.296V4.686
	h20.554l2.231,6.3l-1.08,0.433c-1.368-2.377-3.563-5.544-9.683-5.544h-1.476c-1.188,0-1.584,0.216-2.124,0.72
	c-0.611,0.54-0.9,1.404-0.9,2.16v8.063h3.78c2.052,0,4.14-1.512,4.14-3.779v-0.611h1.151v10.186h-1.151v-0.827
	c0-1.944-1.836-3.815-4.14-3.815h-3.78v9.179c0,1.368,0.828,2.663,2.269,2.663h1.728V30.963z"/>
<path d="M93.561,17.824c0,6.947-3.995,13.822-11.662,13.822c-7.738,0-11.698-6.875-11.698-13.822
	c0-6.875,3.923-13.786,11.698-13.786C89.709,4.038,93.561,11.021,93.561,17.824z M74.231,17.824c0,7.955,3.023,12.635,7.667,12.635
	c4.715,0,7.631-4.859,7.631-12.635c0-7.883-2.987-12.598-7.631-12.598C77.146,5.227,74.231,10.049,74.231,17.824z"/>
<path d="M107.926,4.686c4.968,0,8.567,2.664,8.567,6.84c0,2.735-1.872,5.436-6.911,6.479l4.319,8.819
	c0.575,1.188,1.944,2.987,3.815,2.987h0.756v1.152h-6.371l-6.264-12.778h-2.915v8.675c0,1.908,0.972,2.951,2.376,2.951h1.188v1.152
	H95.832v-1.152h1.188c1.404,0,2.375-1.08,2.375-2.951V8.789c0-1.907-1.008-2.915-2.375-2.915h-1.188V4.686H107.926z M102.923,17.033
	h3.636c1.728,0,5.939-1.045,5.939-5.615c0-2.34-1.368-5.544-5.724-5.544h-1.476c-1.44,0-2.376,1.08-2.376,2.915V17.033z"/>
<path d="M136.726,30.963h-1.224L126.539,8.97v18.214c0,0.647,0.396,2.627,2.844,2.627h0.828v1.152h-8.496v-1.152h0.793
	c1.115,0,2.879-1.188,2.879-2.627V8.214c0-0.828-0.756-2.34-2.52-2.34h-1.152V4.686h6.804l8.747,21.346l7.703-21.346h7.738v1.188
	h-1.151c-1.08,0-2.376,0.937-2.376,2.34v18.97c0,1.799,0.792,2.627,2.34,2.627h1.188v1.152H142.16v-1.152h1.009
	c0.827,0,2.52-0.756,2.52-2.627V6.198L136.726,30.963z"/>
<path d="M162.934,21.676l-1.512,5.111c-0.144,0.432-0.18,0.936-0.18,1.296c0,1.009,0.396,1.728,2.304,1.728h1.044v1.152h-8.783
	v-1.152h1.584c1.8,0,2.52-1.907,2.664-2.447l6.623-22.749l3.383-0.576l7.883,23.433c0.541,1.584,2.125,2.34,3.133,2.34h0.827v1.152
	h-10.835v-1.152h1.729c0.9,0,1.548-0.828,1.548-1.475c0-0.324-0.108-0.865-0.253-1.261l-1.835-5.399H162.934z M171.861,20.524
	l-4.607-13.786l-3.996,13.786H171.861z"/>
<path d="M202.676,4.686l2.52,6.84l-1.116,0.468c-1.8-2.987-3.636-6.119-7.343-6.119c-0.9,0-2.088,0.433-2.088,1.907v19.33
	c0,1.871,0.828,2.699,2.699,2.699h1.404v1.152h-11.734v-1.152h1.403c1.872,0,2.7-0.828,2.7-2.699V7.781
	c0-1.295-0.937-1.907-2.16-1.907c-3.672,0-5.58,3.204-7.307,6.119l-1.116-0.468l2.556-6.84H202.676z"/>
<path d="M207.285,29.811h1.656c2.052,0,2.484-1.295,2.484-2.627V8.502c0-2.088-1.152-2.628-2.484-2.628h-1.656V4.686h11.807v1.188
	h-1.619c-2.052,0-2.52,1.26-2.52,2.628v18.682c0,2.088,1.151,2.627,2.52,2.627h1.619v1.152h-11.807V29.811z"/>
<path d="M245.91,17.824c0,6.947-3.995,13.822-11.662,13.822c-7.738,0-11.698-6.875-11.698-13.822
	c0-6.875,3.923-13.786,11.698-13.786C242.059,4.038,245.91,11.021,245.91,17.824z M226.581,17.824
	c0,7.955,3.023,12.635,7.667,12.635c4.715,0,7.631-4.859,7.631-12.635c0-7.883-2.987-12.598-7.631-12.598
	C229.496,5.227,226.581,10.049,226.581,17.824z"/>
<path d="M253.977,4.686l14.902,20.051V8.502c0-1.512-1.08-2.628-2.447-2.628h-1.224V4.686h8.458v1.188h-1.151
	c-1.368,0-2.483,1.008-2.483,2.628v22.461h-1.152L252.825,8.861v18.322c0,1.367,0.899,2.627,2.483,2.627h1.152v1.152h-8.459v-1.152
	h1.151c1.404,0,2.484-1.043,2.484-2.627V8.502c0-0.721-0.504-2.628-2.592-2.628h-1.044V4.686H253.977z"/>
<rect id="_x3C_スライス_x3E__7_" fill="none" width="273.666" height="35"/>
</svg>
